<svg width="42" height="16" viewBox="0 0 42 16" fill="none" xmlns="http://www.w3.org/2000/svg">
<path d="M7.63605 1.53687V8.51103H6.44657V3.73386L4.23487 8.51103H3.4118L1.18948 3.73641V8.51359H0V1.53687H1.28241L3.82864 7.00635L6.36426 1.53687H7.63605Z" fill="white"/>
<path d="M9.16285 4.24727C9.40181 3.81809 9.72839 3.48599 10.1426 3.24841C10.5568 3.01082 11.0134 2.89331 11.5153 2.89331C11.9666 2.89331 12.3622 2.97761 12.6994 3.14877C13.0366 3.31994 13.3048 3.53197 13.5066 3.78743V2.98528H14.7067V8.51608H13.5066V7.69348C13.3048 7.95405 13.0313 8.1712 12.6835 8.34491C12.3357 8.51863 11.9401 8.60549 11.494 8.60549C11.0002 8.60549 10.5488 8.48286 10.1373 8.24017C9.72573 7.99493 9.40181 7.65516 9.16285 7.21576C8.92389 6.77892 8.80176 6.28076 8.80176 5.72641C8.80176 5.17205 8.92124 4.679 9.16285 4.24982V4.24727ZM13.2623 4.74798C13.0977 4.46697 12.8853 4.25238 12.6198 4.10677C12.3543 3.9586 12.0702 3.88707 11.7648 3.88707C11.4595 3.88707 11.1728 3.9586 10.9099 4.10166C10.6444 4.24472 10.432 4.45675 10.2674 4.73265C10.1028 5.01111 10.0231 5.34066 10.0231 5.7213C10.0231 6.10194 10.1054 6.4366 10.2674 6.72527C10.4293 7.01395 10.647 7.23109 10.9152 7.38182C11.1834 7.53254 11.4675 7.60662 11.7648 7.60662C12.0622 7.60662 12.3569 7.53254 12.6198 7.38692C12.8853 7.23876 13.0977 7.02417 13.2623 6.7406C13.4269 6.45703 13.5066 6.12238 13.5066 5.74174C13.5066 5.36109 13.4243 5.02899 13.2623 4.74798Z" fill="white"/>
<path d="M18.5462 5.75205L21.196 8.51106H19.5896L17.4629 6.13269V8.51106H16.2734V1.08472H17.4629V5.39951L19.5498 2.98026H21.1986L18.5489 5.74949L18.5462 5.75205Z" fill="white"/>
<path d="M23.4367 3.91524V6.9757C23.4367 7.18262 23.4872 7.33079 23.5881 7.42276C23.689 7.51473 23.8615 7.55816 24.1058 7.55816H24.836V8.51104H23.8961C23.3597 8.51104 22.9508 8.39097 22.6641 8.15083C22.38 7.9107 22.2366 7.51728 22.2366 6.9757V3.91524H21.5596V2.9828H22.2366V1.6084H23.4367V2.9828H24.8333V3.91524H23.4367Z" fill="white"/>
<path d="M25.8923 4.24727C26.1313 3.81809 26.4579 3.48599 26.8721 3.24841C27.2863 3.01082 27.7429 2.89331 28.2448 2.89331C28.6961 2.89331 29.0917 2.97761 29.4289 3.14877C29.7661 3.31994 30.0369 3.53197 30.2361 3.78743V2.98528H31.4362V8.51608H30.2361V7.69348C30.0343 7.95405 29.7608 8.1712 29.413 8.34491C29.0652 8.51863 28.6696 8.60549 28.2235 8.60549C27.7297 8.60549 27.2783 8.48286 26.8668 8.24017C26.4552 7.99493 26.1313 7.65516 25.8923 7.21576C25.6534 6.77892 25.5312 6.28076 25.5312 5.72641C25.5312 5.17205 25.6507 4.679 25.8923 4.24982V4.24727ZM29.9918 4.74798C29.8272 4.46697 29.6148 4.25238 29.3493 4.10677C29.0838 3.9586 28.7997 3.88707 28.4943 3.88707C28.189 3.88707 27.9022 3.9586 27.6394 4.10166C27.3765 4.24472 27.1615 4.45675 26.9969 4.73265C26.8322 5.01111 26.7526 5.34066 26.7526 5.7213C26.7526 6.10194 26.8349 6.4366 26.9969 6.72527C27.1615 7.01395 27.3765 7.23109 27.6447 7.38182C27.9129 7.53254 28.197 7.60662 28.4943 7.60662C28.7917 7.60662 29.0864 7.53254 29.3493 7.38692C29.6148 7.23876 29.8272 7.02417 29.9918 6.7406C30.1538 6.45703 30.2361 6.12238 30.2361 5.74174C30.2361 5.36109 30.1538 5.02899 29.9918 4.74798Z" fill="white"/>
<path d="M35.0208 3.14887C35.3713 2.97771 35.7616 2.8934 36.1944 2.8934C36.7015 2.8934 37.1608 3.01092 37.5723 3.24594C37.9812 3.48097 38.3052 3.81307 38.5415 4.24481C38.7778 4.67654 38.8972 5.16959 38.8972 5.72395C38.8972 6.2783 38.7778 6.77646 38.5415 7.2133C38.3052 7.6527 37.9786 7.99247 37.567 8.23771C37.1528 8.48296 36.6962 8.60303 36.1944 8.60303C35.7483 8.60303 35.3553 8.51872 35.0102 8.35267C34.665 8.18662 34.3915 7.97203 34.1924 7.71146V8.51361H33.0029V1.08472H34.1924V3.80541C34.3942 3.53717 34.6703 3.31747 35.0208 3.14887ZM37.4396 4.73274C37.275 4.45429 37.0599 4.24481 36.7917 4.10175C36.5236 3.95869 36.2368 3.88716 35.9315 3.88716C35.6262 3.88716 35.35 3.96124 35.0819 4.10686C34.8137 4.25503 34.5986 4.46706 34.434 4.74807C34.2694 5.02908 34.1898 5.36119 34.1898 5.74183C34.1898 6.12247 34.2721 6.45713 34.434 6.74069C34.596 7.02426 34.8137 7.2414 35.0819 7.38702C35.35 7.53519 35.6341 7.60672 35.9315 7.60672C36.2289 7.60672 36.5236 7.53263 36.7917 7.38191C37.0599 7.23118 37.275 7.01148 37.4396 6.72536C37.6042 6.43924 37.6839 6.10203 37.6839 5.72139C37.6839 5.34075 37.6015 5.0112 37.4396 4.73274Z" fill="white"/>
<path d="M40.1367 2.0401C39.9906 1.8996 39.9189 1.72588 39.9189 1.51896C39.9189 1.31203 39.9906 1.13832 40.1367 0.997811C40.2827 0.857305 40.4632 0.78833 40.6783 0.78833C40.8934 0.78833 41.0633 0.857305 41.2093 0.997811C41.3554 1.13832 41.4297 1.31203 41.4297 1.51896C41.4297 1.72588 41.3554 1.8996 41.2093 2.0401C41.0633 2.18061 40.8854 2.25214 40.6783 2.25214C40.4712 2.25214 40.2827 2.18061 40.1367 2.0401ZM41.2624 2.98277V8.51357H40.0729V2.98277H41.2624Z" fill="white"/>
<path d="M27.8761 10.6953V11.3595H26.5008V15.6666H25.6538V11.3595H24.2705V10.6953H27.8761Z" fill="white"/>
<path d="M32.4528 13.9985H29.3225C29.3464 14.3127 29.4685 14.5656 29.6862 14.7572C29.9039 14.9488 30.1721 15.0433 30.4881 15.0433C30.9447 15.0433 31.266 14.8594 31.4545 14.4915H32.3679C32.2431 14.8543 32.02 15.1506 31.6961 15.3831C31.3722 15.6156 30.9686 15.7305 30.4881 15.7305C30.0951 15.7305 29.7446 15.6462 29.4366 15.4776C29.126 15.309 28.8844 15.0689 28.7091 14.7623C28.5339 14.4558 28.4463 14.0981 28.4463 13.6919C28.4463 13.2858 28.5313 12.9307 28.7038 12.6215C28.8738 12.315 29.1154 12.0774 29.426 11.9088C29.7367 11.7402 30.0924 11.6584 30.4934 11.6584C30.8943 11.6584 31.2235 11.7402 31.5262 11.9011C31.8289 12.0621 32.0652 12.292 32.2325 12.5832C32.3997 12.877 32.4847 13.2142 32.4847 13.5949C32.4847 13.743 32.4741 13.8759 32.4555 13.9959L32.4528 13.9985ZM31.5979 13.3394C31.5926 13.038 31.4811 12.7978 31.2633 12.6164C31.0456 12.4351 30.7748 12.3456 30.4535 12.3456C30.1615 12.3456 29.9119 12.4351 29.7021 12.6139C29.4951 12.7927 29.3703 13.0354 29.3304 13.3394H31.5979Z" fill="white"/>
<path d="M33.29 12.6215C33.46 12.315 33.6989 12.0774 33.999 11.9088C34.299 11.7402 34.6495 11.6584 35.0398 11.6584C35.5363 11.6584 35.9451 11.7709 36.2691 11.9982C36.593 12.2256 36.8134 12.5475 36.9275 12.9664H36.0142C35.9398 12.7723 35.8204 12.619 35.6584 12.5091C35.4938 12.3993 35.2893 12.3456 35.0424 12.3456C34.6946 12.3456 34.4185 12.4632 34.214 12.7007C34.0096 12.9383 33.906 13.2679 33.906 13.6919C33.906 14.116 34.0096 14.4481 34.214 14.6857C34.4185 14.9233 34.6972 15.0433 35.0424 15.0433C35.5336 15.0433 35.8575 14.8364 36.0168 14.42H36.9302C36.8107 14.8211 36.5877 15.1379 36.2611 15.3755C35.9345 15.6105 35.5283 15.7305 35.0424 15.7305C34.6521 15.7305 34.3043 15.6462 34.0016 15.4776C33.6989 15.309 33.4626 15.0689 33.2927 14.7623C33.1228 14.4558 33.0352 14.0981 33.0352 13.6919C33.0352 13.2858 33.1201 12.9307 33.2927 12.6215H33.29Z" fill="white"/>
<path d="M40.7315 11.8525C40.9758 11.9803 41.1696 12.1719 41.3103 12.4248C41.451 12.6777 41.5227 12.9817 41.5227 13.3393V15.6641H40.6837V13.462C40.6837 13.1094 40.5908 12.8386 40.4076 12.6496C40.2244 12.4605 39.9748 12.366 39.6562 12.366C39.3376 12.366 39.088 12.4605 38.9021 12.6496C38.7163 12.8386 38.6233 13.1094 38.6233 13.462V15.6641H37.7764V10.3708H38.6233V12.1795C38.7667 12.0135 38.9499 11.8832 39.1703 11.7938C39.3907 11.7044 39.6323 11.6584 39.8951 11.6584C40.2084 11.6584 40.4872 11.7223 40.7315 11.8525Z" fill="white"/>
</svg>