<svg width="57" height="42" viewBox="0 0 57 42" fill="none" xmlns="http://www.w3.org/2000/svg">
<path d="M37.0603 8.00001L33 3.93969C32.8612 3.7998 32.696 3.68889 32.514 3.61341C32.332 3.53792 32.1367 3.49938 31.9397 3.50001H21C20.6022 3.50001 20.2206 3.65804 19.9393 3.93935C19.658 4.22065 19.5 4.60218 19.5 5.00001V20C19.5 20.3978 19.658 20.7794 19.9393 21.0607C20.2206 21.342 20.6022 21.5 21 21.5H36C36.3978 21.5 36.7794 21.342 37.0607 21.0607C37.342 20.7794 37.5 20.3978 37.5 20V9.06032C37.5006 8.86326 37.4621 8.66805 37.3866 8.48602C37.3111 8.304 37.2002 8.13879 37.0603 8.00001ZM32.25 20H24.75V14.75H32.25V20ZM36 20H33.75V14.75C33.75 14.3522 33.592 13.9707 33.3107 13.6893C33.0294 13.408 32.6478 13.25 32.25 13.25H24.75C24.3522 13.25 23.9706 13.408 23.6893 13.6893C23.408 13.9707 23.25 14.3522 23.25 14.75V20H21V5.00001H31.9397L36 9.06032V20ZM31.5 7.25001C31.5 7.44892 31.421 7.63969 31.2803 7.78034C31.1397 7.92099 30.9489 8.00001 30.75 8.00001H25.5C25.3011 8.00001 25.1103 7.92099 24.9697 7.78034C24.829 7.63969 24.75 7.44892 24.75 7.25001C24.75 7.0511 24.829 6.86033 24.9697 6.71968C25.1103 6.57903 25.3011 6.50001 25.5 6.50001H30.75C30.9489 6.50001 31.1397 6.57903 31.2803 6.71968C31.421 6.86033 31.5 7.0511 31.5 7.25001Z" fill="#BFBFBF"/>
<path d="M4.87207 34.1378C4.83419 33.8016 4.67794 33.5412 4.40332 33.3565C4.1287 33.1695 3.78306 33.076 3.36639 33.076C3.06809 33.076 2.81004 33.1233 2.59224 33.218C2.37444 33.3104 2.20517 33.4382 2.08443 33.6016C1.96606 33.7625 1.90687 33.946 1.90687 34.152C1.90687 34.3248 1.94712 34.474 2.02761 34.5994C2.11047 34.7249 2.21819 34.8303 2.35076 34.9155C2.48571 34.9983 2.63012 35.0682 2.784 35.125C2.93788 35.1795 3.08585 35.2244 3.22789 35.2599L3.93812 35.4446C4.17013 35.5014 4.40806 35.5784 4.6519 35.6754C4.89574 35.7725 5.12183 35.9003 5.33017 36.0589C5.5385 36.2176 5.70659 36.4141 5.83443 36.6484C5.96464 36.8828 6.02974 37.1634 6.02974 37.4901C6.02974 37.902 5.92321 38.2678 5.71014 38.5874C5.49944 38.907 5.19286 39.1591 4.79039 39.3438C4.3903 39.5284 3.90616 39.6207 3.33798 39.6207C2.79347 39.6207 2.32235 39.5343 1.92463 39.3615C1.5269 39.1887 1.21558 38.9437 0.990678 38.6264C0.765773 38.3068 0.641483 37.928 0.617809 37.4901H1.71866C1.73997 37.7528 1.8252 37.9718 1.97434 38.147C2.12586 38.3198 2.3188 38.4489 2.55318 38.5341C2.78992 38.617 3.04915 38.6584 3.33088 38.6584C3.64101 38.6584 3.91681 38.6098 4.15829 38.5128C4.40214 38.4134 4.5939 38.276 4.73358 38.1009C4.87325 37.9233 4.94309 37.7161 4.94309 37.4794C4.94309 37.264 4.88154 37.0876 4.75843 36.9503C4.6377 36.813 4.47316 36.6993 4.26483 36.6094C4.05886 36.5194 3.82567 36.4401 3.56525 36.3714L2.70588 36.1371C2.12349 35.9785 1.66184 35.7453 1.32093 35.4375C0.982392 35.1297 0.813121 34.7225 0.813121 34.2159C0.813121 33.7969 0.926758 33.4311 1.15403 33.1186C1.3813 32.8061 1.68907 32.5634 2.07733 32.3906C2.46558 32.2154 2.90356 32.1278 3.39125 32.1278C3.88367 32.1278 4.31809 32.2143 4.69451 32.3871C5.0733 32.5599 5.3716 32.7978 5.5894 33.1009C5.8072 33.4015 5.92084 33.7472 5.93031 34.1378H4.87207ZM8.84313 39.6207C8.49748 39.6207 8.18498 39.5568 7.90563 39.429C7.62627 39.2988 7.40492 39.1106 7.24157 38.8643C7.08058 38.6181 7.00009 38.3163 7.00009 37.9588C7.00009 37.651 7.05927 37.3977 7.17765 37.1989C7.29602 37 7.45582 36.8426 7.65705 36.7266C7.85828 36.6106 8.08319 36.523 8.33176 36.4638C8.58034 36.4046 8.83366 36.3596 9.09171 36.3288C9.41841 36.291 9.68356 36.2602 9.88716 36.2365C10.0908 36.2105 10.2387 36.169 10.3311 36.1122C10.4234 36.0554 10.4695 35.9631 10.4695 35.8352V35.8104C10.4695 35.5002 10.382 35.2599 10.2068 35.0895C10.0339 34.919 9.77589 34.8338 9.43262 34.8338C9.07514 34.8338 8.79341 34.9131 8.58745 35.0717C8.38385 35.228 8.24299 35.402 8.16486 35.5938L7.16699 35.3665C7.28536 35.035 7.45819 34.7675 7.68546 34.5639C7.9151 34.358 8.17907 34.2088 8.47736 34.1165C8.77566 34.0218 9.08934 33.9744 9.41841 33.9744C9.63622 33.9744 9.86704 34.0005 10.1109 34.0526C10.3571 34.1023 10.5867 34.1946 10.7998 34.3295C11.0152 34.4645 11.1916 34.6574 11.3289 34.9084C11.4662 35.157 11.5349 35.4801 11.5349 35.8778V39.5H10.498V38.7543H10.4553C10.3867 38.8916 10.2837 39.0265 10.1464 39.1591C10.0091 39.2917 9.83271 39.4018 9.61728 39.4893C9.40184 39.5769 9.14379 39.6207 8.84313 39.6207ZM9.07395 38.7685C9.36751 38.7685 9.61846 38.7105 9.82679 38.5945C10.0375 38.4785 10.1973 38.3269 10.3062 38.1399C10.4175 37.9505 10.4731 37.7481 10.4731 37.5327V36.8295C10.4352 36.8674 10.3618 36.9029 10.2529 36.9361C10.1464 36.9669 10.0245 36.9941 9.88716 37.0178C9.74985 37.0391 9.61609 37.0592 9.48588 37.0781C9.35568 37.0947 9.24677 37.1089 9.15918 37.1207C8.95321 37.1468 8.765 37.1906 8.59455 37.2521C8.42646 37.3137 8.29152 37.4025 8.18972 37.5185C8.09029 37.6321 8.04057 37.7836 8.04057 37.973C8.04057 38.2358 8.13764 38.4347 8.33176 38.5696C8.52589 38.7022 8.77329 38.7685 9.07395 38.7685ZM17.42 34.0455L15.442 39.5H14.3057L12.3241 34.0455H13.464L14.8454 38.2429H14.9023L16.2801 34.0455H17.42ZM20.5832 39.6101C20.0458 39.6101 19.5829 39.4953 19.1947 39.2656C18.8088 39.0336 18.5105 38.7081 18.2998 38.2891C18.0915 37.8677 17.9873 37.3741 17.9873 36.8082C17.9873 36.2495 18.0915 35.7571 18.2998 35.331C18.5105 34.9048 18.8041 34.5722 19.1805 34.3331C19.5593 34.094 20.002 33.9744 20.5086 33.9744C20.8164 33.9744 21.1147 34.0253 21.4035 34.1271C21.6923 34.2289 21.9516 34.3887 22.1812 34.6065C22.4108 34.8243 22.5919 35.1072 22.7245 35.4553C22.8571 35.8009 22.9234 36.2211 22.9234 36.7159V37.0923H18.5874V36.2969H21.8829C21.8829 36.0175 21.8261 35.7701 21.7124 35.5547C21.5988 35.3369 21.439 35.1652 21.233 35.0398C21.0294 34.9143 20.7903 34.8516 20.5157 34.8516C20.2174 34.8516 19.957 34.925 19.7345 35.0717C19.5143 35.2161 19.3438 35.4055 19.2231 35.6399C19.1047 35.8719 19.0455 36.1241 19.0455 36.3963V37.0178C19.0455 37.3823 19.1095 37.6925 19.2373 37.9482C19.3675 38.2038 19.5486 38.3991 19.7806 38.5341C20.0126 38.6667 20.2837 38.733 20.5938 38.733C20.7951 38.733 20.9785 38.7045 21.1443 38.6477C21.31 38.5885 21.4532 38.5009 21.574 38.3849C21.6947 38.2689 21.787 38.1257 21.8509 37.9553L22.8559 38.1364C22.7754 38.4323 22.631 38.6915 22.4227 38.9141C22.2167 39.1342 21.9575 39.3059 21.645 39.429C21.3348 39.5497 20.9809 39.6101 20.5832 39.6101ZM26.8332 39.5V32.2273H29.4255C29.9913 32.2273 30.4601 32.3303 30.8318 32.5362C31.2035 32.7422 31.4816 33.0239 31.6663 33.3814C31.8509 33.7365 31.9433 34.1366 31.9433 34.5817C31.9433 35.0291 31.8498 35.4316 31.6627 35.7891C31.4781 36.1442 31.1987 36.4259 30.8247 36.6342C30.453 36.8402 29.9854 36.9432 29.422 36.9432H27.6393V36.0128H29.3225C29.68 36.0128 29.97 35.9512 30.1926 35.8281C30.4151 35.7027 30.5785 35.5322 30.6826 35.3168C30.7868 35.1013 30.8389 34.8563 30.8389 34.5817C30.8389 34.3071 30.7868 34.0632 30.6826 33.8501C30.5785 33.6371 30.4139 33.4702 30.189 33.3494C29.9665 33.2287 29.6729 33.1683 29.3083 33.1683H27.9305V39.5H26.8332ZM33.1444 39.5V34.0455H34.1707V34.9119H34.2275C34.327 34.6184 34.5022 34.3875 34.7531 34.2195C35.0064 34.049 35.2929 33.9638 35.6125 33.9638C35.6788 33.9638 35.7569 33.9661 35.8469 33.9709C35.9392 33.9756 36.0114 33.9815 36.0635 33.9886V35.0043C36.0209 34.9924 35.9451 34.9794 35.8362 34.9652C35.7273 34.9486 35.6184 34.9403 35.5095 34.9403C35.2586 34.9403 35.0348 34.9936 34.8383 35.1001C34.6442 35.2043 34.4903 35.3499 34.3767 35.5369C34.2631 35.7216 34.2062 35.9323 34.2062 36.169V39.5H33.1444ZM39.1379 39.6101C38.6005 39.6101 38.1376 39.4953 37.7494 39.2656C37.3635 39.0336 37.0652 38.7081 36.8545 38.2891C36.6462 37.8677 36.542 37.3741 36.542 36.8082C36.542 36.2495 36.6462 35.7571 36.8545 35.331C37.0652 34.9048 37.3588 34.5722 37.7352 34.3331C38.114 34.094 38.5567 33.9744 39.0633 33.9744C39.3711 33.9744 39.6694 34.0253 39.9582 34.1271C40.247 34.2289 40.5062 34.3887 40.7359 34.6065C40.9655 34.8243 41.1466 35.1072 41.2792 35.4553C41.4118 35.8009 41.4781 36.2211 41.4781 36.7159V37.0923H37.1421V36.2969H40.4376C40.4376 36.0175 40.3808 35.7701 40.2671 35.5547C40.1535 35.3369 39.9937 35.1652 39.7877 35.0398C39.5841 34.9143 39.345 34.8516 39.0704 34.8516C38.7721 34.8516 38.5117 34.925 38.2892 35.0717C38.069 35.2161 37.8985 35.4055 37.7778 35.6399C37.6594 35.8719 37.6002 36.1241 37.6002 36.3963V37.0178C37.6002 37.3823 37.6642 37.6925 37.792 37.9482C37.9222 38.2038 38.1033 38.3991 38.3353 38.5341C38.5673 38.6667 38.8384 38.733 39.1485 38.733C39.3498 38.733 39.5332 38.7045 39.699 38.6477C39.8647 38.5885 40.0079 38.5009 40.1286 38.3849C40.2494 38.2689 40.3417 38.1257 40.4056 37.9553L41.4106 38.1364C41.3301 38.4323 41.1857 38.6915 40.9774 38.9141C40.7714 39.1342 40.5122 39.3059 40.1997 39.429C39.8895 39.5497 39.5356 39.6101 39.1379 39.6101ZM46.7435 35.3771L45.7812 35.5476C45.7409 35.4245 45.677 35.3073 45.5894 35.196C45.5042 35.0848 45.3882 34.9936 45.2414 34.9226C45.0946 34.8516 44.9111 34.8161 44.691 34.8161C44.3903 34.8161 44.1394 34.8835 43.9381 35.0185C43.7369 35.151 43.6363 35.3227 43.6363 35.5334C43.6363 35.7157 43.7037 35.8625 43.8387 35.9737C43.9736 36.085 44.1914 36.1761 44.4921 36.2472L45.3586 36.446C45.8605 36.562 46.2345 36.7408 46.4807 36.9822C46.7269 37.2237 46.8501 37.5374 46.8501 37.9233C46.8501 38.25 46.7554 38.5412 46.566 38.7969C46.3789 39.0502 46.1173 39.2491 45.7812 39.3935C45.4474 39.5379 45.0603 39.6101 44.6199 39.6101C44.0091 39.6101 43.5108 39.4799 43.1249 39.2195C42.739 38.9567 42.5023 38.5838 42.4147 38.1009L43.441 37.9446C43.5049 38.2121 43.6363 38.4145 43.8351 38.5518C44.034 38.6868 44.2932 38.7543 44.6128 38.7543C44.9608 38.7543 45.239 38.6821 45.4474 38.5376C45.6557 38.3909 45.7599 38.2121 45.7599 38.0014C45.7599 37.831 45.6959 37.6877 45.5681 37.5717C45.4426 37.4557 45.2497 37.3681 44.9893 37.3089L44.066 37.1065C43.557 36.9905 43.1805 36.8059 42.9367 36.5526C42.6952 36.2992 42.5745 35.9785 42.5745 35.5902C42.5745 35.2682 42.6644 34.9865 42.8444 34.745C43.0243 34.5036 43.2729 34.3153 43.5901 34.1804C43.9073 34.0431 44.2707 33.9744 44.6803 33.9744C45.2698 33.9744 45.7338 34.1023 46.0724 34.358C46.4109 34.6113 46.6346 34.951 46.7435 35.3771ZM50.3683 39.6101C49.8309 39.6101 49.3681 39.4953 48.9798 39.2656C48.594 39.0336 48.2957 38.7081 48.085 38.2891C47.8766 37.8677 47.7725 37.3741 47.7725 36.8082C47.7725 36.2495 47.8766 35.7571 48.085 35.331C48.2957 34.9048 48.5892 34.5722 48.9656 34.3331C49.3444 34.094 49.7871 33.9744 50.2938 33.9744C50.6015 33.9744 50.8998 34.0253 51.1887 34.1271C51.4775 34.2289 51.7367 34.3887 51.9664 34.6065C52.196 34.8243 52.3771 35.1072 52.5097 35.4553C52.6423 35.8009 52.7085 36.2211 52.7085 36.7159V37.0923H48.3726V36.2969H51.6681C51.6681 36.0175 51.6112 35.7701 51.4976 35.5547C51.384 35.3369 51.2242 35.1652 51.0182 35.0398C50.8146 34.9143 50.5755 34.8516 50.3009 34.8516C50.0026 34.8516 49.7422 34.925 49.5196 35.0717C49.2994 35.2161 49.129 35.4055 49.0083 35.6399C48.8899 35.8719 48.8307 36.1241 48.8307 36.3963V37.0178C48.8307 37.3823 48.8946 37.6925 49.0225 37.9482C49.1527 38.2038 49.3338 38.3991 49.5658 38.5341C49.7978 38.6667 50.0689 38.733 50.379 38.733C50.5802 38.733 50.7637 38.7045 50.9294 38.6477C51.0951 38.5885 51.2384 38.5009 51.3591 38.3849C51.4798 38.2689 51.5722 38.1257 51.6361 37.9553L52.6411 38.1364C52.5606 38.4323 52.4162 38.6915 52.2078 38.9141C52.0019 39.1342 51.7426 39.3059 51.4301 39.429C51.12 39.5497 50.7661 39.6101 50.3683 39.6101ZM56.4328 34.0455V34.8977H53.4534V34.0455H56.4328ZM54.2524 32.7386H55.3142V37.8984C55.3142 38.1044 55.345 38.2595 55.4065 38.3636C55.4681 38.4654 55.5474 38.5353 55.6444 38.5732C55.7439 38.6087 55.8516 38.6264 55.9676 38.6264C56.0528 38.6264 56.1274 38.6205 56.1913 38.6087C56.2552 38.5968 56.305 38.5874 56.3405 38.5803L56.5322 39.4574C56.4707 39.4811 56.3831 39.5047 56.2694 39.5284C56.1558 39.5545 56.0138 39.5687 55.8433 39.571C55.564 39.5758 55.3035 39.526 55.0621 39.4219C54.8206 39.3177 54.6253 39.1567 54.4761 38.9389C54.327 38.7211 54.2524 38.4477 54.2524 38.1186V32.7386Z" fill="#BFBFBF"/>
</svg>
