<svg width="33" height="33" viewBox="0 0 33 33" fill="none" xmlns="http://www.w3.org/2000/svg">
<path d="M32.4997 17.5001C32.4997 17.7653 32.3943 18.0197 32.2068 18.2072C32.0192 18.3948 31.7649 18.5001 31.4997 18.5001H29.4997V20.5001C29.4997 20.7653 29.3943 21.0197 29.2068 21.2072C29.0192 21.3948 28.7649 21.5001 28.4997 21.5001C28.2345 21.5001 27.9801 21.3948 27.7926 21.2072C27.605 21.0197 27.4997 20.7653 27.4997 20.5001V18.5001H25.4997C25.2345 18.5001 24.9801 18.3948 24.7926 18.2072C24.605 18.0197 24.4997 17.7653 24.4997 17.5001C24.4997 17.2349 24.605 16.9805 24.7926 16.793C24.9801 16.6055 25.2345 16.5001 25.4997 16.5001H27.4997V14.5001C27.4997 14.2349 27.605 13.9805 27.7926 13.793C27.9801 13.6055 28.2345 13.5001 28.4997 13.5001C28.7649 13.5001 29.0192 13.6055 29.2068 13.793C29.3943 13.9805 29.4997 14.2349 29.4997 14.5001V16.5001H31.4997C31.7649 16.5001 32.0192 16.6055 32.2068 16.793C32.3943 16.9805 32.4997 17.2349 32.4997 17.5001ZM25.2659 24.8564C25.4367 25.0596 25.5197 25.3223 25.4967 25.5867C25.4737 25.8512 25.3466 26.0956 25.1434 26.2664C24.9402 26.4371 24.6775 26.5201 24.4131 26.4971C24.1486 26.4742 23.9042 26.3471 23.7334 26.1439C21.2184 23.1489 17.7609 21.5001 13.9997 21.5001C10.2384 21.5001 6.78093 23.1489 4.26593 26.1439C4.09519 26.3469 3.85079 26.4738 3.58648 26.4967C3.32217 26.5196 3.05961 26.4365 2.85655 26.2657C2.65349 26.095 2.52658 25.8506 2.50372 25.5863C2.48087 25.322 2.56394 25.0594 2.73468 24.8564C4.60218 22.6339 6.92468 21.0551 9.50593 20.2101C7.93831 19.2337 6.73133 17.7734 6.06759 16.05C5.40386 14.3265 5.31949 12.4338 5.82724 10.6582C6.33499 8.88254 7.40724 7.32057 8.88176 6.20859C10.3563 5.09661 12.1529 4.49512 13.9997 4.49512C15.8465 4.49512 17.6431 5.09661 19.1176 6.20859C20.5921 7.32057 21.6644 8.88254 22.1721 10.6582C22.6799 12.4338 22.5955 14.3265 21.9318 16.05C21.268 17.7734 20.061 19.2337 18.4934 20.2101C21.0747 21.0551 23.3972 22.6339 25.2659 24.8564ZM13.9997 19.5001C15.2853 19.5001 16.542 19.1189 17.6109 18.4047C18.6798 17.6904 19.5129 16.6753 20.0049 15.4876C20.4969 14.2998 20.6256 12.9929 20.3748 11.732C20.124 10.4712 19.5049 9.31296 18.5959 8.40392C17.6868 7.49488 16.5286 6.87582 15.2678 6.62501C14.0069 6.37421 12.7 6.50293 11.5122 6.9949C10.3245 7.48687 9.30935 8.31999 8.59512 9.38891C7.88089 10.4578 7.49968 11.7145 7.49968 13.0001C7.50166 14.7234 8.18712 16.3756 9.40567 17.5941C10.6242 18.8127 12.2764 19.4981 13.9997 19.5001Z" fill="white"/>
</svg>
