<svg width="33" height="33" viewBox="0 0 33 33" fill="none" xmlns="http://www.w3.org/2000/svg">
<path d="M25.1976 16.6325L18.7463 14.2575L16.3713 7.80125C16.2307 7.41916 15.9762 7.08941 15.6423 6.85648C15.3083 6.62356 14.911 6.49867 14.5038 6.49867C14.0967 6.49867 13.6993 6.62356 13.3654 6.85648C13.0314 7.08941 12.777 7.41916 12.6363 7.80125L10.2588 14.25L3.80258 16.625C3.42049 16.7656 3.09074 17.0201 2.85781 17.354C2.62489 17.688 2.5 18.0853 2.5 18.4925C2.5 18.8997 2.62489 19.297 2.85781 19.631C3.09074 19.9649 3.42049 20.2194 3.80258 20.36L10.2501 22.75L12.6251 29.2025C12.7657 29.5846 13.0202 29.9143 13.3541 30.1473C13.6881 30.3802 14.0854 30.5051 14.4926 30.5051C14.8997 30.5051 15.2971 30.3802 15.631 30.1473C15.965 29.9143 16.2194 29.5846 16.3601 29.2025L18.7351 22.7512L25.1913 20.3762C25.5734 20.2356 25.9032 19.9811 26.1361 19.6472C26.369 19.3133 26.4939 18.9159 26.4939 18.5088C26.4939 18.1016 26.369 17.7042 26.1361 17.3703C25.9032 17.0364 25.5734 16.7819 25.1913 16.6413L25.1976 16.6325ZM18.0488 20.875C17.7786 20.9742 17.5332 21.131 17.3296 21.3345C17.1261 21.5381 16.9693 21.7835 16.8701 22.0537L14.4951 28.4862L12.1251 22.0487C12.0258 21.7799 11.8695 21.5358 11.6669 21.3332C11.4643 21.1306 11.2201 20.9743 10.9513 20.875L4.51883 18.5L10.9513 16.125C11.2201 16.0257 11.4643 15.8694 11.6669 15.6668C11.8695 15.4642 12.0258 15.2201 12.1251 14.9513L14.5001 8.51875L16.8751 14.9513C16.9743 15.2215 17.1311 15.4669 17.3346 15.6705C17.5382 15.874 17.7836 16.0308 18.0538 16.13L24.4863 18.505L18.0488 20.875ZM18.5001 5.5C18.5001 5.23478 18.6054 4.98043 18.793 4.79289C18.9805 4.60536 19.2349 4.5 19.5001 4.5H21.5001V2.5C21.5001 2.23478 21.6054 1.98043 21.793 1.79289C21.9805 1.60536 22.2349 1.5 22.5001 1.5C22.7653 1.5 23.0197 1.60536 23.2072 1.79289C23.3947 1.98043 23.5001 2.23478 23.5001 2.5V4.5H25.5001C25.7653 4.5 26.0197 4.60536 26.2072 4.79289C26.3947 4.98043 26.5001 5.23478 26.5001 5.5C26.5001 5.76522 26.3947 6.01957 26.2072 6.20711C26.0197 6.39464 25.7653 6.5 25.5001 6.5H23.5001V8.5C23.5001 8.76522 23.3947 9.01957 23.2072 9.20711C23.0197 9.39464 22.7653 9.5 22.5001 9.5C22.2349 9.5 21.9805 9.39464 21.793 9.20711C21.6054 9.01957 21.5001 8.76522 21.5001 8.5V6.5H19.5001C19.2349 6.5 18.9805 6.39464 18.793 6.20711C18.6054 6.01957 18.5001 5.76522 18.5001 5.5ZM31.5001 11.5C31.5001 11.7652 31.3947 12.0196 31.2072 12.2071C31.0197 12.3946 30.7653 12.5 30.5001 12.5H29.5001V13.5C29.5001 13.7652 29.3947 14.0196 29.2072 14.2071C29.0197 14.3946 28.7653 14.5 28.5001 14.5C28.2349 14.5 27.9805 14.3946 27.793 14.2071C27.6054 14.0196 27.5001 13.7652 27.5001 13.5V12.5H26.5001C26.2349 12.5 25.9805 12.3946 25.793 12.2071C25.6054 12.0196 25.5001 11.7652 25.5001 11.5C25.5001 11.2348 25.6054 10.9804 25.793 10.7929C25.9805 10.6054 26.2349 10.5 26.5001 10.5H27.5001V9.5C27.5001 9.23478 27.6054 8.98043 27.793 8.79289C27.9805 8.60536 28.2349 8.5 28.5001 8.5C28.7653 8.5 29.0197 8.60536 29.2072 8.79289C29.3947 8.98043 29.5001 9.23478 29.5001 9.5V10.5H30.5001C30.7653 10.5 31.0197 10.6054 31.2072 10.7929C31.3947 10.9804 31.5001 11.2348 31.5001 11.5Z" fill="white"/>
</svg>
