<svg width="33" height="33" viewBox="0 0 33 33" fill="none" xmlns="http://www.w3.org/2000/svg">
<path d="M10.5 11.5V21.5H4.5C4.23478 21.5 3.98043 21.3946 3.79289 21.2071C3.60536 21.0196 3.5 20.7652 3.5 20.5V12.5C3.5 12.2348 3.60536 11.9804 3.79289 11.7929C3.98043 11.6054 4.23478 11.5 4.5 11.5H10.5Z" fill="#3CE155"/>
<path d="M19.9387 3.60129C19.7706 3.51935 19.5828 3.48622 19.3968 3.50566C19.2107 3.52511 19.0338 3.59635 18.8862 3.71129L10.1562 10.5H4.5C3.96957 10.5 3.46086 10.7108 3.08579 11.0858C2.71071 11.4609 2.5 11.9696 2.5 12.5V20.5C2.5 21.0305 2.71071 21.5392 3.08579 21.9143C3.46086 22.2893 3.96957 22.5 4.5 22.5H10.1562L18.8862 29.2888C19.034 29.4036 19.211 29.4747 19.3971 29.494C19.5832 29.5132 19.771 29.4799 19.9391 29.3977C20.1072 29.3155 20.2489 29.1879 20.3481 29.0292C20.4472 28.8705 20.4999 28.6872 20.5 28.5V4.50004C20.5 4.3127 20.4474 4.12912 20.3482 3.97022C20.249 3.81132 20.1071 3.68349 19.9387 3.60129ZM4.5 12.5H9.5V20.5H4.5V12.5ZM18.5 26.455L11.5 21.0113V11.9888L18.5 6.54504V26.455ZM25.25 13.195C26.0543 14.1081 26.4981 15.2832 26.4981 16.5C26.4981 17.7169 26.0543 18.8919 25.25 19.805C25.0733 19.9992 24.8274 20.1161 24.5653 20.1305C24.3032 20.1449 24.046 20.0557 23.8491 19.8821C23.6522 19.7085 23.5315 19.4644 23.5129 19.2026C23.4944 18.9408 23.5795 18.6821 23.75 18.4825C24.2323 17.9348 24.4984 17.2299 24.4984 16.5C24.4984 15.7702 24.2323 15.0653 23.75 14.5175C23.5795 14.3179 23.4944 14.0593 23.5129 13.7975C23.5315 13.5357 23.6522 13.2916 23.8491 13.118C24.046 12.9444 24.3032 12.8552 24.5653 12.8696C24.8274 12.884 25.0733 13.0009 25.25 13.195ZM31.5 16.5C31.5014 18.9603 30.5947 21.3345 28.9538 23.1675C28.7756 23.3603 28.5288 23.4753 28.2667 23.4877C28.0045 23.5001 27.748 23.409 27.5524 23.2339C27.3568 23.0589 27.2379 22.8139 27.2214 22.552C27.2048 22.2901 27.2918 22.0321 27.4638 21.8338C28.7755 20.3671 29.5007 18.4684 29.5007 16.5007C29.5007 14.5329 28.7755 12.6342 27.4638 11.1675C27.3737 11.0701 27.304 10.9558 27.2586 10.8311C27.2131 10.7065 27.193 10.574 27.1993 10.4415C27.2055 10.309 27.2381 10.1791 27.2951 10.0593C27.3521 9.93947 27.4323 9.83221 27.5312 9.74373C27.63 9.65525 27.7455 9.58732 27.8708 9.5439C27.9962 9.50048 28.1289 9.48244 28.2613 9.49082C28.3937 9.4992 28.5231 9.53384 28.642 9.59272C28.7609 9.65161 28.8669 9.73355 28.9538 9.83379C30.5952 11.6661 31.502 14.0401 31.5 16.5Z" fill="white"/>
</svg>
