<svg width="33" height="33" viewBox="0 0 33 33" fill="none" xmlns="http://www.w3.org/2000/svg">
<path d="M23.5 19.5V13.5C23.5 13.2348 23.6054 12.9804 23.7929 12.7929C23.9804 12.6053 24.2348 12.5 24.5 12.5C24.7652 12.5 25.0196 12.6053 25.2071 12.7929C25.3946 12.9804 25.5 13.2348 25.5 13.5V19.5C25.5 19.7652 25.3946 20.0196 25.2071 20.2071C25.0196 20.3946 24.7652 20.5 24.5 20.5C24.2348 20.5 23.9804 20.3946 23.7929 20.2071C23.6054 20.0196 23.5 19.7652 23.5 19.5ZM28.5 10.5C28.2348 10.5 27.9804 10.6053 27.7929 10.7929C27.6054 10.9804 27.5 11.2348 27.5 11.5V21.5C27.5 21.7652 27.6054 22.0196 27.7929 22.2071C27.9804 22.3946 28.2348 22.5 28.5 22.5C28.7652 22.5 29.0196 22.3946 29.2071 22.2071C29.3946 22.0196 29.5 21.7652 29.5 21.5V11.5C29.5 11.2348 29.3946 10.9804 29.2071 10.7929C29.0196 10.6053 28.7652 10.5 28.5 10.5ZM27.24 26.8275C27.3302 26.9243 27.4002 27.0381 27.4461 27.1623C27.4919 27.2864 27.5127 27.4184 27.5072 27.5506C27.5017 27.6828 27.47 27.8126 27.4139 27.9325C27.3578 28.0524 27.2785 28.1599 27.1806 28.2489C27.0827 28.3379 26.9681 28.4066 26.8434 28.451C26.7187 28.4953 26.5865 28.5145 26.4543 28.5074C26.3222 28.5003 26.1928 28.467 26.0736 28.4095C25.9544 28.3521 25.8478 28.2715 25.76 28.1725L20.5 22.3862V28.5C20.4999 28.6871 20.4472 28.8704 20.3481 29.0291C20.2489 29.1878 20.1072 29.3155 19.9391 29.3977C19.771 29.4798 19.5832 29.5132 19.3971 29.4939C19.211 29.4747 19.034 29.4036 18.8862 29.2887L10.1562 22.5H4.5C3.96957 22.5 3.46086 22.2893 3.08579 21.9142C2.71071 21.5391 2.5 21.0304 2.5 20.5V12.5C2.5 11.9696 2.71071 11.4608 3.08579 11.0858C3.46086 10.7107 3.96957 10.5 4.5 10.5H9.69375L5.76 6.17248C5.66983 6.07563 5.59979 5.96183 5.55392 5.83771C5.50806 5.71358 5.48728 5.58158 5.49281 5.44937C5.49833 5.31715 5.53004 5.18735 5.5861 5.06748C5.64216 4.94761 5.72146 4.84006 5.81939 4.75106C5.91732 4.66206 6.03194 4.59338 6.15661 4.54901C6.28128 4.50463 6.41352 4.48545 6.54566 4.49255C6.6778 4.49966 6.80721 4.53293 6.9264 4.59042C7.04559 4.64791 7.15218 4.72849 7.24 4.82748L27.24 26.8275ZM18.5 20.1862L11.5125 12.5H4.5V20.5H10.5C10.7225 20.4996 10.9386 20.574 11.1138 20.7112L18.5 26.455V20.1862ZM15.1325 9.16373L18.5 6.53873V13.8475C18.5 14.1127 18.6054 14.3671 18.7929 14.5546C18.9804 14.7421 19.2348 14.8475 19.5 14.8475C19.7652 14.8475 20.0196 14.7421 20.2071 14.5546C20.3946 14.3671 20.5 14.1127 20.5 13.8475V4.49998C20.4999 4.31286 20.4472 4.12954 20.3481 3.97085C20.2489 3.81216 20.1072 3.68447 19.9391 3.60231C19.771 3.52014 19.5832 3.48679 19.3971 3.50604C19.211 3.5253 19.034 3.59639 18.8862 3.71123L13.905 7.58623C13.6998 7.75043 13.5676 7.98879 13.5368 8.24976C13.506 8.51072 13.5791 8.77333 13.7404 8.98078C13.9017 9.18823 14.1382 9.32386 14.3987 9.35833C14.6592 9.3928 14.9228 9.32334 15.1325 9.16498V9.16373Z" fill="white"/>
</svg>
