<svg width="33" height="33" viewBox="0 0 33 33" fill="none" xmlns="http://www.w3.org/2000/svg">
<path d="M25.5 9.5V23.5C25.5 23.7652 25.3946 24.0196 25.2071 24.2071C25.0196 24.3946 24.7652 24.5 24.5 24.5H4.5C4.23478 24.5 3.98043 24.3946 3.79289 24.2071C3.60536 24.0196 3.5 23.7652 3.5 23.5V9.5C3.5 9.23478 3.60536 8.98043 3.79289 8.79289C3.98043 8.60536 4.23478 8.5 4.5 8.5H24.5C24.7652 8.5 25.0196 8.60536 25.2071 8.79289C25.3946 8.98043 25.5 9.23478 25.5 9.5Z" fill="#3CE155"/>
<path d="M31.9713 9.625C31.8118 9.53953 31.6321 9.49892 31.4514 9.5075C31.2707 9.51609 31.0956 9.57354 30.945 9.67375L26.5 12.6313V9.5C26.5 8.96957 26.2893 8.46086 25.9142 8.08579C25.5391 7.71071 25.0304 7.5 24.5 7.5H4.5C3.96957 7.5 3.46086 7.71071 3.08579 8.08579C2.71071 8.46086 2.5 8.96957 2.5 9.5V23.5C2.5 24.0304 2.71071 24.5391 3.08579 24.9142C3.46086 25.2893 3.96957 25.5 4.5 25.5H24.5C25.0304 25.5 25.5391 25.2893 25.9142 24.9142C26.2893 24.5391 26.5 24.0304 26.5 23.5V20.375L30.945 23.3388C31.1101 23.446 31.3032 23.502 31.5 23.5C31.7652 23.5 32.0196 23.3946 32.2071 23.2071C32.3946 23.0196 32.5 22.7652 32.5 22.5V10.5C32.4987 10.3201 32.449 10.1438 32.3559 9.98982C32.2628 9.83582 32.13 9.70979 31.9713 9.625ZM24.5 23.5H4.5V9.5H24.5V23.5ZM30.5 20.6313L26.5 17.965V15.035L30.5 12.375V20.6313Z" fill="white"/>
</svg>
