<svg width="33" height="33" viewBox="0 0 33 33" fill="none" xmlns="http://www.w3.org/2000/svg">
<path d="M31.9713 9.62508C31.8118 9.53961 31.6321 9.499 31.4514 9.50759C31.2707 9.51617 31.0956 9.57363 30.945 9.67383L26.5 12.6313V9.50008C26.5 8.96965 26.2893 8.46094 25.9142 8.08587C25.5391 7.7108 25.0304 7.50008 24.5 7.50008H14.6325C14.3673 7.50008 14.1129 7.60544 13.9254 7.79298C13.7379 7.98051 13.6325 8.23487 13.6325 8.50008C13.6325 8.7653 13.7379 9.01965 13.9254 9.20719C14.1129 9.39473 14.3673 9.50008 14.6325 9.50008H24.5V20.4538C24.5 20.7191 24.6054 20.9734 24.7929 21.1609C24.9804 21.3485 25.2348 21.4538 25.5 21.4538C25.7652 21.4538 26.0196 21.3485 26.2071 21.1609C26.3946 20.9734 26.5 20.7191 26.5 20.4538V20.3751L30.945 23.3388C31.1101 23.446 31.3032 23.5021 31.5 23.5001C31.7652 23.5001 32.0196 23.3947 32.2071 23.2072C32.3946 23.0197 32.5 22.7653 32.5 22.5001V10.5001C32.4987 10.3202 32.449 10.1439 32.3559 9.98991C32.2628 9.83591 32.13 9.70987 31.9713 9.62508ZM30.5 20.6313L26.5 17.9651V15.0351L30.5 12.3751V20.6313ZM7.24 4.82758C7.15218 4.72859 7.04559 4.64801 6.9264 4.59052C6.80721 4.53303 6.6778 4.49976 6.54566 4.49265C6.41352 4.48555 6.28128 4.50473 6.15661 4.54911C6.03194 4.59348 5.91732 4.66216 5.81939 4.75116C5.72146 4.84016 5.64216 4.94771 5.5861 5.06758C5.53004 5.18745 5.49833 5.31725 5.49281 5.44947C5.48728 5.58168 5.50806 5.71368 5.55392 5.83781C5.59979 5.96194 5.66983 6.07573 5.76 6.17258L6.96625 7.50008H4.5C3.96957 7.50008 3.46086 7.7108 3.08579 8.08587C2.71071 8.46094 2.5 8.96965 2.5 9.50008V23.5001C2.5 24.0305 2.71071 24.5392 3.08579 24.9143C3.46086 25.2894 3.96957 25.5001 4.5 25.5001H23.33L25.76 28.1726C25.8478 28.2716 25.9544 28.3522 26.0736 28.4096C26.1928 28.4671 26.3222 28.5004 26.4543 28.5075C26.5865 28.5146 26.7187 28.4954 26.8434 28.4511C26.9681 28.4067 27.0827 28.338 27.1806 28.249C27.2785 28.16 27.3578 28.0525 27.4139 27.9326C27.47 27.8127 27.5017 27.6829 27.5072 27.5507C27.5127 27.4185 27.4919 27.2865 27.4461 27.1624C27.4002 27.0382 27.3302 26.9244 27.24 26.8276L7.24 4.82758ZM4.5 23.5001V9.50008H8.785L21.5125 23.5001H4.5Z" fill="white"/>
</svg>
