<svg width="25" height="25" viewBox="0 0 25 25" fill="none" xmlns="http://www.w3.org/2000/svg">
<path d="M13.6922 19.7949C13.8796 19.9825 13.9849 20.2367 13.9849 20.5018C13.9849 20.7669 13.8796 21.0212 13.6922 21.2087L12.4497 22.4587C11.1357 23.7718 9.35393 24.5092 7.49627 24.5086C5.6386 24.5081 3.85725 23.7695 2.5441 22.4556C1.23095 21.1416 0.493555 19.3598 0.494141 17.5021C0.494727 15.6444 1.23324 13.8631 2.54723 12.5499L5.56223 9.53493C6.82433 8.27182 8.52144 7.53877 10.3063 7.48579C12.0911 7.43281 13.8287 8.0639 15.1635 9.24993C15.262 9.33726 15.3423 9.44314 15.3999 9.56151C15.4574 9.67988 15.4911 9.80843 15.499 9.93983C15.5069 10.0712 15.4889 10.2029 15.4459 10.3273C15.4029 10.4517 15.3358 10.5664 15.2485 10.6649C15.1611 10.7634 15.0553 10.8438 14.9369 10.9013C14.8185 10.9589 14.69 10.9926 14.5586 11.0005C14.4272 11.0084 14.2955 10.9903 14.1711 10.9473C14.0467 10.9043 13.932 10.8373 13.8335 10.7499C12.8801 9.90331 11.6393 9.45289 10.3649 9.49076C9.09046 9.52863 7.87862 10.0519 6.97723 10.9537L3.96223 13.9649C3.02435 14.9028 2.49746 16.1748 2.49746 17.5012C2.49746 18.8275 3.02435 20.0996 3.96223 21.0374C4.9001 21.9753 6.17212 22.5022 7.49848 22.5022C8.82483 22.5022 10.0969 21.9753 11.0347 21.0374L12.2772 19.7949C12.3701 19.702 12.4804 19.6282 12.6018 19.5779C12.7232 19.5275 12.8533 19.5016 12.9847 19.5016C13.1161 19.5016 13.2463 19.5275 13.3677 19.5779C13.4891 19.6282 13.5994 19.702 13.6922 19.7949ZM22.4522 2.54493C21.1381 1.23371 19.3574 0.497314 17.501 0.497314C15.6445 0.497314 13.8639 1.23371 12.5497 2.54493L11.3072 3.78868C11.1198 3.97632 11.0145 4.23075 11.0146 4.496C11.0147 4.76125 11.1202 5.01558 11.3079 5.20306C11.4955 5.39053 11.7499 5.49579 12.0152 5.49567C12.2804 5.49556 12.5347 5.39007 12.7222 5.20243L13.9647 3.95993C14.9026 3.02206 16.1746 2.49517 17.501 2.49517C18.8273 2.49517 20.0994 3.02206 21.0372 3.95993C21.9751 4.89781 22.502 6.16983 22.502 7.49618C22.502 8.82253 21.9751 10.0946 21.0372 11.0324L18.0222 14.0499C17.1203 14.9511 15.9082 15.4738 14.6338 15.511C13.3594 15.5481 12.1189 15.097 11.166 14.2499C11.0675 14.1626 10.9528 14.0955 10.8283 14.0525C10.7039 14.0095 10.5723 13.9915 10.4409 13.9994C10.1755 14.0153 9.92734 14.136 9.75098 14.3349C9.66365 14.4334 9.59657 14.5482 9.55358 14.6726C9.51059 14.797 9.49253 14.9286 9.50042 15.06C9.51636 15.3254 9.63706 15.5736 9.83598 15.7499C11.1705 16.9363 12.9079 17.5678 14.6927 17.5153C16.4775 17.4628 18.1748 16.7302 19.4372 15.4674L22.4522 12.4524C23.7642 11.1382 24.5011 9.35699 24.5011 7.49993C24.5011 5.64288 23.7642 3.86171 22.4522 2.54743V2.54493Z" fill="white"/>
</svg>
