<svg width="37" height="37" viewBox="0 0 37 37" fill="none" xmlns="http://www.w3.org/2000/svg">
<rect x="0.5" y="0.5" width="36" height="36" rx="18" fill="#E63B3E" fill-opacity="0.96"/>
<path d="M10.8845 17.1155C10.7009 17.1155 10.5248 17.0425 10.395 16.9127C10.2652 16.7829 10.1922 16.6068 10.1922 16.4232V11.577C10.1922 11.2098 10.3381 10.8576 10.5978 10.5979C10.8574 10.3383 11.2096 10.1924 11.5768 10.1924L25.423 10.1924C25.7902 10.1924 26.1424 10.3383 26.4021 10.5979C26.6617 10.8576 26.8076 11.2098 26.8076 11.577V16.4232C26.8076 16.6068 26.7347 16.7829 26.6048 16.9127C26.475 17.0425 26.2989 17.1155 26.1153 17.1155C25.9317 17.1155 25.7556 17.0425 25.6258 16.9127C25.4959 16.7829 25.423 16.6068 25.423 16.4232V11.577L11.5768 11.577L11.5768 16.4232C11.5768 16.6068 11.5039 16.7829 11.3741 16.9127C11.2442 17.0425 11.0682 17.1155 10.8845 17.1155ZM18.9897 26.6053L22.4513 23.1437C22.5812 23.0138 22.6542 22.8376 22.6542 22.6539C22.6542 22.4702 22.5812 22.294 22.4513 22.1641C22.3214 22.0342 22.1452 21.9612 21.9615 21.9612C21.7777 21.9612 21.6016 22.0342 21.4717 22.1641L19.1922 24.4444L19.1922 16.4232C19.1922 16.2395 19.1193 16.0634 18.9895 15.9336C18.8596 15.8038 18.6835 15.7308 18.4999 15.7308C18.3163 15.7308 18.1402 15.8038 18.0104 15.9336C17.8806 16.0634 17.8076 16.2395 17.8076 16.4232V24.4444L15.5282 22.1641C15.3983 22.0342 15.2221 21.9612 15.0384 21.9612C14.8547 21.9612 14.6785 22.0342 14.5486 22.1641C14.4187 22.294 14.3457 22.4702 14.3457 22.6539C14.3457 22.8376 14.4187 23.0138 14.5486 23.1437L18.0101 26.6053C18.0744 26.6696 18.1508 26.7207 18.2348 26.7555C18.3189 26.7904 18.4089 26.8083 18.4999 26.8083C18.5909 26.8083 18.681 26.7904 18.765 26.7555C18.8491 26.7207 18.9254 26.6696 18.9897 26.6053Z" fill="white"/>
</svg>
