<svg width="22" height="20" viewBox="0 0 22 20" fill="none" xmlns="http://www.w3.org/2000/svg">
<path d="M13.9698 18.5583H13.8506C9.78064 18.5583 7.81898 17.1 7.47981 13.8333C7.44314 13.4917 7.71814 13.1833 8.10314 13.15C8.47898 13.1166 8.81814 13.375 8.85481 13.7167C9.12064 16.3333 10.4773 17.3083 13.8598 17.3083H13.979C17.7098 17.3083 19.0298 16.1083 19.0298 12.7167V7.28332C19.0298 3.89165 17.7098 2.69165 13.979 2.69165H13.8598C10.459 2.69165 9.10231 3.68332 8.85481 6.34998C8.80898 6.69165 8.49731 6.94998 8.10314 6.91665C7.71814 6.89165 7.44314 6.58332 7.47064 6.24165C7.78231 2.92498 9.75314 1.44165 13.8506 1.44165H13.9698C18.4706 1.44165 20.3956 3.19165 20.3956 7.28332V12.7167C20.3956 16.8083 18.4706 18.5583 13.9698 18.5583Z" fill="#FF453A"/>
<path d="M13.6397 10.625H1.83301C1.45717 10.625 1.14551 10.3417 1.14551 10C1.14551 9.65833 1.45717 9.375 1.83301 9.375H13.6397C14.0155 9.375 14.3272 9.65833 14.3272 10C14.3272 10.3417 14.0247 10.625 13.6397 10.625Z" fill="#FF453A"/>
<path d="M11.5954 13.4167C11.4212 13.4167 11.247 13.3584 11.1095 13.2334C10.8437 12.9917 10.8437 12.5917 11.1095 12.35L13.6945 10L11.1095 7.65003C10.8437 7.40837 10.8437 7.00837 11.1095 6.7667C11.3754 6.52503 11.8154 6.52503 12.0812 6.7667L15.152 9.55837C15.4179 9.80003 15.4179 10.2 15.152 10.4417L12.0812 13.2334C11.9437 13.3584 11.7695 13.4167 11.5954 13.4167Z" fill="#FF453A"/>
</svg>
