<svg width="20" height="20" viewBox="0 0 20 20" fill="none" xmlns="http://www.w3.org/2000/svg">
<path d="M4.99904 8.20312V3.125C4.99904 2.95924 4.93319 2.80027 4.81598 2.68306C4.69877 2.56585 4.5398 2.5 4.37404 2.5C4.20828 2.5 4.04931 2.56585 3.9321 2.68306C3.81489 2.80027 3.74904 2.95924 3.74904 3.125V8.20312C3.21128 8.34081 2.73464 8.65356 2.39427 9.09207C2.05389 9.53057 1.86914 10.0699 1.86914 10.625C1.86914 11.1801 2.05389 11.7194 2.39427 12.1579C2.73464 12.5964 3.21128 12.9092 3.74904 13.0469V16.875C3.74904 17.0408 3.81489 17.1997 3.9321 17.3169C4.04931 17.4342 4.20828 17.5 4.37404 17.5C4.5398 17.5 4.69877 17.4342 4.81598 17.3169C4.93319 17.1997 4.99904 17.0408 4.99904 16.875V13.0469C5.5368 12.9092 6.01344 12.5964 6.35382 12.1579C6.69419 11.7194 6.87894 11.1801 6.87894 10.625C6.87894 10.0699 6.69419 9.53057 6.35382 9.09207C6.01344 8.65356 5.5368 8.34081 4.99904 8.20312ZM4.37404 11.875C4.12682 11.875 3.88514 11.8017 3.67958 11.6643C3.47402 11.527 3.3138 11.3318 3.21919 11.1034C3.12458 10.8749 3.09983 10.6236 3.14806 10.3811C3.19629 10.1387 3.31534 9.91593 3.49016 9.74112C3.66497 9.5663 3.8877 9.44725 4.13018 9.39902C4.37266 9.35079 4.62399 9.37554 4.8524 9.47015C5.0808 9.56476 5.27603 9.72498 5.41338 9.93054C5.55073 10.1361 5.62404 10.3778 5.62404 10.625C5.62404 10.9565 5.49235 11.2745 5.25793 11.5089C5.02351 11.7433 4.70556 11.875 4.37404 11.875ZM10.624 4.45312V3.125C10.624 2.95924 10.5582 2.80027 10.441 2.68306C10.3238 2.56585 10.1648 2.5 9.99904 2.5C9.83328 2.5 9.67431 2.56585 9.5571 2.68306C9.43989 2.80027 9.37404 2.95924 9.37404 3.125V4.45312C8.83628 4.59081 8.35964 4.90356 8.01927 5.34207C7.67889 5.78057 7.49414 6.31989 7.49414 6.875C7.49414 7.43011 7.67889 7.96943 8.01927 8.40793C8.35964 8.84644 8.83628 9.15919 9.37404 9.29688V16.875C9.37404 17.0408 9.43989 17.1997 9.5571 17.3169C9.67431 17.4342 9.83328 17.5 9.99904 17.5C10.1648 17.5 10.3238 17.4342 10.441 17.3169C10.5582 17.1997 10.624 17.0408 10.624 16.875V9.29688C11.1618 9.15919 11.6384 8.84644 11.9788 8.40793C12.3192 7.96943 12.5039 7.43011 12.5039 6.875C12.5039 6.31989 12.3192 5.78057 11.9788 5.34207C11.6384 4.90356 11.1618 4.59081 10.624 4.45312ZM9.99904 8.125C9.75182 8.125 9.51014 8.05169 9.30458 7.91434C9.09902 7.77699 8.9388 7.58176 8.84419 7.35335C8.74958 7.12495 8.72483 6.87361 8.77306 6.63114C8.82129 6.38866 8.94034 6.16593 9.11516 5.99112C9.28997 5.8163 9.5127 5.69725 9.75518 5.64902C9.99766 5.60079 10.249 5.62554 10.4774 5.72015C10.7058 5.81476 10.901 5.97498 11.0384 6.18054C11.1757 6.3861 11.249 6.62777 11.249 6.875C11.249 7.20652 11.1173 7.52446 10.8829 7.75888C10.6485 7.9933 10.3306 8.125 9.99904 8.125ZM18.124 13.125C18.1235 12.5707 17.9392 12.0323 17.5999 11.5941C17.2606 11.1558 16.7855 10.8425 16.249 10.7031V3.125C16.249 2.95924 16.1832 2.80027 16.066 2.68306C15.9488 2.56585 15.7898 2.5 15.624 2.5C15.4583 2.5 15.2993 2.56585 15.1821 2.68306C15.0649 2.80027 14.999 2.95924 14.999 3.125V10.7031C14.4613 10.8408 13.9846 11.1536 13.6443 11.5921C13.3039 12.0306 13.1191 12.5699 13.1191 13.125C13.1191 13.6801 13.3039 14.2194 13.6443 14.6579C13.9846 15.0964 14.4613 15.4092 14.999 15.5469V16.875C14.999 17.0408 15.0649 17.1997 15.1821 17.3169C15.2993 17.4342 15.4583 17.5 15.624 17.5C15.7898 17.5 15.9488 17.4342 16.066 17.3169C16.1832 17.1997 16.249 17.0408 16.249 16.875V15.5469C16.7855 15.4075 17.2606 15.0942 17.5999 14.6559C17.9392 14.2177 18.1235 13.6793 18.124 13.125ZM15.624 14.375C15.3768 14.375 15.1351 14.3017 14.9296 14.1643C14.724 14.027 14.5638 13.8318 14.4692 13.6034C14.3746 13.3749 14.3498 13.1236 14.3981 12.8811C14.4463 12.6387 14.5653 12.4159 14.7402 12.2411C14.915 12.0663 15.1377 11.9472 15.3802 11.899C15.6227 11.8508 15.874 11.8755 16.1024 11.9701C16.3308 12.0648 16.526 12.225 16.6634 12.4305C16.8007 12.6361 16.874 12.8778 16.874 13.125C16.874 13.4565 16.7423 13.7745 16.5079 14.0089C16.2735 14.2433 15.9556 14.375 15.624 14.375Z" fill="black"/>
</svg>
