<svg width="33" height="32" viewBox="0 0 33 32" fill="none" xmlns="http://www.w3.org/2000/svg">
<path d="M27.2403 26.3274L7.24025 4.32739C7.15243 4.22839 7.04584 4.14782 6.92665 4.09032C6.80746 4.03283 6.67805 3.99957 6.54591 3.99246C6.41377 3.98535 6.28153 4.00454 6.15686 4.04891C6.03219 4.09329 5.91757 4.16196 5.81964 4.25096C5.72171 4.33996 5.64241 4.44751 5.58635 4.56738C5.53029 4.68725 5.49858 4.81705 5.49306 4.94927C5.48754 5.08149 5.50831 5.21348 5.55417 5.33761C5.60004 5.46174 5.67008 5.57553 5.76025 5.67239L10.5003 10.8861V15.9999C10.5004 17.0767 10.7903 18.1337 11.3397 19.0599C11.889 19.9861 12.6775 20.7474 13.6224 21.2639C14.5674 21.7804 15.6339 22.0331 16.7101 21.9954C17.7863 21.9578 18.8325 21.6312 19.739 21.0499L21.099 22.5499C19.9003 23.392 18.4934 23.8888 17.0318 23.9861C15.5701 24.0834 14.1098 23.7776 12.81 23.1018C11.5103 22.4261 10.421 21.4065 9.66105 20.1541C8.90107 18.9018 8.49954 17.4648 8.50025 15.9999C8.50025 15.7347 8.39489 15.4803 8.20736 15.2928C8.01982 15.1052 7.76547 14.9999 7.50025 14.9999C7.23503 14.9999 6.98068 15.1052 6.79314 15.2928C6.60561 15.4803 6.50025 15.7347 6.50025 15.9999C6.5033 18.4781 7.42515 20.8671 9.08756 22.705C10.75 24.5428 13.0348 25.699 15.5003 25.9499V28.9999C15.5003 29.2651 15.6056 29.5195 15.7931 29.707C15.9807 29.8945 16.235 29.9999 16.5003 29.9999C16.7655 29.9999 17.0198 29.8945 17.2074 29.707C17.3949 29.5195 17.5003 29.2651 17.5003 28.9999V25.9486C19.2937 25.7702 21.0053 25.1088 22.4528 24.0349L25.7603 27.6724C25.8481 27.7714 25.9547 27.852 26.0739 27.9095C26.193 27.9669 26.3225 28.0002 26.4546 28.0073C26.5867 28.0144 26.719 27.9952 26.8436 27.9509C26.9683 27.9065 27.0829 27.8378 27.1809 27.7488C27.2788 27.6598 27.3581 27.5523 27.4141 27.4324C27.4702 27.3125 27.5019 27.1827 27.5074 27.0505C27.513 26.9183 27.4922 26.7863 27.4463 26.6622C27.4005 26.538 27.3304 26.4242 27.2403 26.3274ZM16.5003 19.9999C15.4394 19.9999 14.422 19.5785 13.6718 18.8283C12.9217 18.0782 12.5003 17.0608 12.5003 15.9999V13.0861L18.3653 19.5386C17.7903 19.8416 17.1502 19.9999 16.5003 19.9999ZM11.3953 4.84739C12.0813 3.73655 13.1109 2.87979 14.3279 2.40708C15.5449 1.93438 16.8828 1.87153 18.1388 2.22807C19.3947 2.58461 20.5001 3.34109 21.2872 4.38272C22.0744 5.42436 22.5002 6.6943 22.5003 7.99989V15.5536C22.5003 15.8189 22.3949 16.0732 22.2074 16.2607C22.0198 16.4483 21.7655 16.5536 21.5003 16.5536C21.235 16.5536 20.9807 16.4483 20.7931 16.2607C20.6056 16.0732 20.5003 15.8189 20.5003 15.5536V7.99989C20.5007 7.12903 20.217 6.28181 19.6921 5.58689C19.1673 4.89198 18.43 4.38733 17.5922 4.1496C16.7544 3.91187 15.8619 3.95405 15.0503 4.26972C14.2387 4.5854 13.5522 5.15732 13.0953 5.89864C13.0287 6.01522 12.9393 6.11721 12.8324 6.19851C12.7256 6.27981 12.6035 6.33876 12.4734 6.37185C12.3432 6.40494 12.2078 6.41149 12.0751 6.39111C11.9424 6.37073 11.8151 6.32383 11.7009 6.25322C11.5868 6.1826 11.488 6.08972 11.4104 5.9801C11.3329 5.87048 11.2783 5.74638 11.2497 5.61518C11.2212 5.48399 11.2194 5.34839 11.2444 5.21648C11.2694 5.08457 11.3207 4.95904 11.3953 4.84739ZM23.9553 18.9086C24.3171 17.9816 24.5019 16.995 24.5003 15.9999C24.5003 15.7347 24.6056 15.4803 24.7931 15.2928C24.9807 15.1052 25.235 14.9999 25.5003 14.9999C25.7655 14.9999 26.0198 15.1052 26.2074 15.2928C26.3949 15.4803 26.5003 15.7347 26.5003 15.9999C26.502 17.244 26.2705 18.4774 25.8178 19.6361C25.772 19.7611 25.7017 19.8758 25.6111 19.9733C25.5204 20.0708 25.4112 20.1492 25.2899 20.2039C25.1685 20.2586 25.0375 20.2886 24.9044 20.292C24.7713 20.2954 24.6389 20.2723 24.5149 20.2238C24.3909 20.1754 24.2778 20.1027 24.1823 20.01C24.0867 19.9172 24.0107 19.8064 23.9585 19.6839C23.9064 19.5614 23.8793 19.4297 23.8787 19.2966C23.8781 19.1635 23.9042 19.0316 23.9553 18.9086Z" fill="white"/>
</svg>
