<svg width="33" height="33" viewBox="0 0 33 33" fill="none" xmlns="http://www.w3.org/2000/svg">
<path d="M21.5 8.5V16.5C21.5 17.8261 20.9732 19.0979 20.0355 20.0355C19.0979 20.9732 17.8261 21.5 16.5 21.5C15.1739 21.5 13.9021 20.9732 12.9645 20.0355C12.0268 19.0979 11.5 17.8261 11.5 16.5V8.5C11.5 7.17392 12.0268 5.90215 12.9645 4.96447C13.9021 4.02678 15.1739 3.5 16.5 3.5C17.8261 3.5 19.0979 4.02678 20.0355 4.96447C20.9732 5.90215 21.5 7.17392 21.5 8.5Z" fill="#3CE155"/>
<path d="M16.5 22.5C18.0908 22.4983 19.616 21.8657 20.7408 20.7408C21.8657 19.616 22.4983 18.0908 22.5 16.5V8.5C22.5 6.9087 21.8679 5.38258 20.7426 4.25736C19.6174 3.13214 18.0913 2.5 16.5 2.5C14.9087 2.5 13.3826 3.13214 12.2574 4.25736C11.1321 5.38258 10.5 6.9087 10.5 8.5V16.5C10.5017 18.0908 11.1343 19.616 12.2592 20.7408C13.384 21.8657 14.9092 22.4983 16.5 22.5ZM12.5 8.5C12.5 7.43913 12.9214 6.42172 13.6716 5.67157C14.4217 4.92143 15.4391 4.5 16.5 4.5C17.5609 4.5 18.5783 4.92143 19.3284 5.67157C20.0786 6.42172 20.5 7.43913 20.5 8.5V16.5C20.5 17.5609 20.0786 18.5783 19.3284 19.3284C18.5783 20.0786 17.5609 20.5 16.5 20.5C15.4391 20.5 14.4217 20.0786 13.6716 19.3284C12.9214 18.5783 12.5 17.5609 12.5 16.5V8.5ZM17.5 26.45V29.5C17.5 29.7652 17.3946 30.0196 17.2071 30.2071C17.0196 30.3946 16.7652 30.5 16.5 30.5C16.2348 30.5 15.9804 30.3946 15.7929 30.2071C15.6054 30.0196 15.5 29.7652 15.5 29.5V26.45C13.0346 26.1991 10.7497 25.043 9.0873 23.2051C7.4249 21.3672 6.50305 18.9782 6.5 16.5C6.5 16.2348 6.60536 15.9804 6.79289 15.7929C6.98043 15.6054 7.23478 15.5 7.5 15.5C7.76522 15.5 8.01957 15.6054 8.20711 15.7929C8.39464 15.9804 8.5 16.2348 8.5 16.5C8.5 18.6217 9.34285 20.6566 10.8431 22.1569C12.3434 23.6571 14.3783 24.5 16.5 24.5C18.6217 24.5 20.6566 23.6571 22.1569 22.1569C23.6571 20.6566 24.5 18.6217 24.5 16.5C24.5 16.2348 24.6054 15.9804 24.7929 15.7929C24.9804 15.6054 25.2348 15.5 25.5 15.5C25.7652 15.5 26.0196 15.6054 26.2071 15.7929C26.3946 15.9804 26.5 16.2348 26.5 16.5C26.497 18.9782 25.5751 21.3672 23.9127 23.2051C22.2503 25.043 19.9654 26.1991 17.5 26.45Z" fill="white"/>
</svg>
