<svg width="33" height="33" viewBox="0 0 33 33" fill="none" xmlns="http://www.w3.org/2000/svg">
<path d="M24.5 16.5C24.5 18.0823 24.0308 19.629 23.1518 20.9446C22.2727 22.2602 21.0233 23.2855 19.5615 23.891C18.0997 24.4965 16.4911 24.655 14.9393 24.3463C13.3874 24.0376 11.962 23.2757 10.8431 22.1569C9.72433 21.038 8.9624 19.6126 8.65372 18.0607C8.34504 16.5089 8.50347 14.9003 9.10897 13.4385C9.71447 11.9767 10.7398 10.7273 12.0554 9.84824C13.371 8.96919 14.9178 8.5 16.5 8.5C18.6217 8.5 20.6566 9.34285 22.1569 10.8431C23.6571 12.3434 24.5 14.3783 24.5 16.5Z" fill="#DE3A3D"/>
<path d="M16.5 3.5C13.9288 3.5 11.4154 4.26244 9.27759 5.6909C7.13975 7.11935 5.47351 9.14968 4.48957 11.5251C3.50563 13.9006 3.24819 16.5144 3.7498 19.0362C4.25141 21.5579 5.48953 23.8743 7.30762 25.6924C9.1257 27.5105 11.4421 28.7486 13.9638 29.2502C16.4856 29.7518 19.0995 29.4944 21.4749 28.5104C23.8503 27.5265 25.8807 25.8603 27.3091 23.7224C28.7376 21.5846 29.5 19.0712 29.5 16.5C29.4964 13.0533 28.1256 9.74882 25.6884 7.31163C23.2512 4.87445 19.9467 3.50364 16.5 3.5ZM16.5 27.5C14.3244 27.5 12.1977 26.8549 10.3887 25.6462C8.57979 24.4375 7.16989 22.7195 6.33733 20.7095C5.50477 18.6995 5.28693 16.4878 5.71137 14.354C6.13581 12.2202 7.18345 10.2602 8.72183 8.72183C10.2602 7.18345 12.2202 6.1358 14.354 5.71136C16.4878 5.28692 18.6995 5.50476 20.7095 6.33733C22.7195 7.16989 24.4375 8.57979 25.6462 10.3887C26.8549 12.1977 27.5 14.3244 27.5 16.5C27.4967 19.4164 26.3367 22.2123 24.2745 24.2745C22.2123 26.3367 19.4164 27.4967 16.5 27.5ZM16.5 7.5C14.72 7.5 12.9799 8.02784 11.4999 9.01677C10.0198 10.0057 8.86628 11.4113 8.18509 13.0558C7.5039 14.7004 7.32567 16.51 7.67294 18.2558C8.02021 20.0016 8.87737 21.6053 10.136 22.864C11.3947 24.1226 12.9984 24.9798 14.7442 25.3271C16.49 25.6743 18.2996 25.4961 19.9442 24.8149C21.5887 24.1337 22.9943 22.9802 23.9832 21.5001C24.9722 20.0201 25.5 18.28 25.5 16.5C25.4974 14.1139 24.5483 11.8262 22.861 10.139C21.1738 8.45171 18.8861 7.50265 16.5 7.5ZM16.5 23.5C15.1155 23.5 13.7622 23.0895 12.611 22.3203C11.4599 21.5511 10.5627 20.4579 10.0328 19.1788C9.50304 17.8997 9.36441 16.4922 9.63451 15.1344C9.90461 13.7765 10.5713 12.5292 11.5503 11.5503C12.5292 10.5713 13.7765 9.9046 15.1344 9.6345C16.4922 9.36441 17.8997 9.50303 19.1788 10.0328C20.4579 10.5627 21.5511 11.4599 22.3203 12.611C23.0895 13.7622 23.5 15.1155 23.5 16.5C23.498 18.3559 22.7599 20.1352 21.4476 21.4476C20.1352 22.7599 18.3559 23.498 16.5 23.5Z" fill="white"/>
</svg>
