<svg width="22" height="20" viewBox="0 0 22 20" fill="none" xmlns="http://www.w3.org/2000/svg">
<path d="M2.75 7.59163V12.4C2.75 14.1666 2.75 14.1666 4.58333 15.2916L9.625 17.9416C10.3858 18.3416 11.6233 18.3416 12.375 17.9416L17.4167 15.2916C19.25 14.1666 19.25 14.1666 19.25 12.4083V7.59163C19.25 5.8333 19.25 5.8333 17.4167 4.7083L12.375 2.0583C11.6233 1.6583 10.3858 1.6583 9.625 2.0583L4.58333 4.7083C2.75 5.8333 2.75 5.8333 2.75 7.59163Z" stroke="#BFBFBF" stroke-width="1.5" stroke-linecap="round" stroke-linejoin="round" style="mix-blend-mode:plus-darker"/>
<path d="M11 12.5C12.5188 12.5 13.75 11.3807 13.75 10C13.75 8.61929 12.5188 7.5 11 7.5C9.48122 7.5 8.25 8.61929 8.25 10C8.25 11.3807 9.48122 12.5 11 12.5Z" stroke="#BFBFBF" stroke-width="1.5" stroke-linecap="round" stroke-linejoin="round" style="mix-blend-mode:plus-darker"/>
</svg>
