<svg width="33" height="33" viewBox="0 0 33 33" fill="none" xmlns="http://www.w3.org/2000/svg">
<path d="M27.5 14.4998V26.4998C27.5 27.0302 27.2893 27.5389 26.9142 27.914C26.5391 28.2891 26.0304 28.4998 25.5 28.4998H7.5C6.96957 28.4998 6.46086 28.2891 6.08579 27.914C5.71071 27.5389 5.5 27.0302 5.5 26.4998V14.4998C5.5 13.9694 5.71071 13.4607 6.08579 13.0856C6.46086 12.7105 6.96957 12.4998 7.5 12.4998H10.5C10.7652 12.4998 11.0196 12.6052 11.2071 12.7927C11.3946 12.9802 11.5 13.2346 11.5 13.4998C11.5 13.765 11.3946 14.0194 11.2071 14.2069C11.0196 14.3945 10.7652 14.4998 10.5 14.4998H7.5V26.4998H25.5V14.4998H22.5C22.2348 14.4998 21.9804 14.3945 21.7929 14.2069C21.6054 14.0194 21.5 13.765 21.5 13.4998C21.5 13.2346 21.6054 12.9802 21.7929 12.7927C21.9804 12.6052 22.2348 12.4998 22.5 12.4998H25.5C26.0304 12.4998 26.5391 12.7105 26.9142 13.0856C27.2893 13.4607 27.5 13.9694 27.5 14.4998ZM12.2075 9.20731L15.5 5.91356V17.4998C15.5 17.765 15.6054 18.0194 15.7929 18.2069C15.9804 18.3945 16.2348 18.4998 16.5 18.4998C16.7652 18.4998 17.0196 18.3945 17.2071 18.2069C17.3946 18.0194 17.5 17.765 17.5 17.4998V5.91356L20.7925 9.20731C20.9801 9.39495 21.2346 9.50037 21.5 9.50037C21.7654 9.50037 22.0199 9.39495 22.2075 9.20731C22.3951 9.01967 22.5006 8.76517 22.5006 8.49981C22.5006 8.23445 22.3951 7.97995 22.2075 7.79231L17.2075 2.79231C17.1146 2.69933 17.0043 2.62557 16.8829 2.57525C16.7615 2.52493 16.6314 2.49902 16.5 2.49902C16.3686 2.49902 16.2385 2.52493 16.1171 2.57525C15.9957 2.62557 15.8854 2.69933 15.7925 2.79231L10.7925 7.79231C10.6049 7.97995 10.4994 8.23445 10.4994 8.49981C10.4994 8.76517 10.6049 9.01967 10.7925 9.20731C10.9801 9.39495 11.2346 9.50037 11.5 9.50037C11.7654 9.50037 12.0199 9.39495 12.2075 9.20731Z" fill="white"/>
</svg>
